<?xml version="1.0" encoding="UTF-8" standalone="no"?>
<!-- Uploaded to: SVG Repo, www.svgrepo.com, Generator: SVG Repo Mixer Tools -->

<svg
   fill="#A91101"
   version="1.1"
   width="800px"
   height="800px"
   viewBox="0 0 100 100"
   enable-background="new 0 0 100 100"
   xml:space="preserve"
   xmlns="http://www.w3.org/2000/svg"
   xmlns:svg="http://www.w3.org/2000/svg">
<g>
<path
   d="M 76.513248,23.484085 C 69.429036,16.401592 60.009576,12.5 49.990332,12.5 c -10.019246,0 -19.436462,3.900471 -26.521797,10.984085 -14.6247132,14.62116 -14.6247132,38.41179 0,53.03183 C 30.551627,83.598408 39.972207,87.5 49.990332,87.5 60.010697,87.5 69.430156,83.599528 76.514369,76.515915 83.598582,69.434543 87.500001,60.016252 87.500001,49.99944 87.498801,39.983748 83.597461,30.566578 76.513248,23.484085 Z"
   id="path4"
   style="stroke-width:1.12095" /><path
   d="m 68.979258,30.925701 c -1.16802,-1.167736 -3.061379,-1.167736 -4.229401,0 L 49.94546,45.726503 35.139568,30.925701 c -1.168022,-1.167736 -3.061381,-1.167736 -4.229402,0 -1.16802,1.167738 -1.16802,3.060637 0,4.228374 L 45.71606,49.954878 30.910166,64.755679 c -1.16802,1.167737 -1.16802,3.060637 0,4.228375 0.584759,0.584615 1.348982,0.876175 2.114701,0.876175 0.765718,0 1.529942,-0.29156 2.114701,-0.876175 L 49.94546,54.183251 64.749857,68.984054 c 0.584759,0.584615 1.348982,0.876175 2.114701,0.876175 0.765719,0 1.529942,-0.29156 2.1147,-0.876175 1.168021,-1.167738 1.168021,-3.060638 0,-4.228375 L 54.17486,49.954878 68.979258,35.154075 c 1.168021,-1.167737 1.168021,-3.062132 0,-4.228374 z"
   id="path2-3"
   style="fill:#E6E6FA;stroke-width:1.49539;stroke-miterlimit:4;stroke-dasharray:none" /></g>
</svg>
