<?xml version="1.0" encoding="iso-8859-1"?>
<!-- Uploaded to: SVG Repo, www.svgrepo.com, Generator: SVG Repo Mixer Tools -->
<svg height="800px" width="800px" version="1.1" id="Layer_1" xmlns="http://www.w3.org/2000/svg" xmlns:xlink="http://www.w3.org/1999/xlink" 
	 viewBox="0 0 512 512" xml:space="preserve">
<path style="fill:#FA6E51;" d="M512,256.006C512,397.402,397.394,512.004,256.004,512C114.606,512.004,0,397.402,0,256.006
	C-0.007,114.61,114.606,0,256.004,0C397.394,0,512,114.614,512,256.006z"/>
<path style="fill:#E8573F;" d="M510.903,279.232L323.302,91.631c-1.3-1.299-3.065-2.031-4.902-2.031H138.133
	c-3.828,0-6.933,3.105-6.933,6.933v318.933c0,2.347,1.243,4.32,3.027,5.574c0.463,0.658,87.759,87.954,88.417,88.417
	c0.098,0.14,0.247,0.224,0.353,0.354c10.813,1.393,21.813,2.188,33.006,2.188C389.561,512.004,499.161,409.733,510.903,279.232z"/>
<g>
	<path style="fill:#F4F6F9;" d="M378.769,147.098l-55.467-55.467c-1.3-1.299-3.065-2.031-4.902-2.031H138.133
		c-3.829,0-6.933,3.104-6.933,6.933v318.933c0,3.829,3.104,6.933,6.933,6.933h235.733c3.829,0,6.933-3.104,6.933-6.933V152
		C380.8,150.162,380.068,148.398,378.769,147.098z M256,125.902v60.765h-27.733v-60.765l11.219-22.435h5.296L256,125.902z
		 M366.933,408.533H145.067V103.467h78.914l-8.849,17.699c-0.481,0.961-0.732,2.025-0.732,3.101V193.6
		c0,3.829,3.104,6.933,6.933,6.933h41.6c3.829,0,6.933-3.104,6.933-6.933v-69.333c0-1.076-0.251-2.14-0.732-3.101l-8.849-17.699
		h55.244l51.404,51.404V408.533z"/>
	<path style="fill:#F4F6F9;" d="M228.267,249.067c0,3.829,3.104,6.933,6.933,6.933h13.867c3.829,0,6.933-3.104,6.933-6.933
		s-3.104-6.933-6.933-6.933H235.2C231.371,242.133,228.267,245.237,228.267,249.067z"/>
	<path style="fill:#F4F6F9;" d="M228.267,276.8c0,3.829,3.104,6.933,6.933,6.933h13.867c3.829,0,6.933-3.104,6.933-6.933
		c0-3.829-3.104-6.933-6.933-6.933H235.2C231.371,269.867,228.267,272.971,228.267,276.8z"/>
	<path style="fill:#F4F6F9;" d="M228.267,304.533c0,3.829,3.104,6.933,6.933,6.933h13.867c3.829,0,6.933-3.104,6.933-6.933
		c0-3.829-3.104-6.933-6.933-6.933H235.2C231.371,297.6,228.267,300.704,228.267,304.533z"/>
	<path style="fill:#F4F6F9;" d="M228.267,332.267c0,3.829,3.104,6.933,6.933,6.933h13.867c3.829,0,6.933-3.104,6.933-6.933
		c0-3.829-3.104-6.933-6.933-6.933H235.2C231.371,325.333,228.267,328.437,228.267,332.267z"/>
	<path style="fill:#F4F6F9;" d="M228.267,360c0,3.829,3.104,6.933,6.933,6.933h13.867c3.829,0,6.933-3.104,6.933-6.933
		c0-3.829-3.104-6.933-6.933-6.933H235.2C231.371,353.067,228.267,356.171,228.267,360z"/>
	<path style="fill:#F4F6F9;" d="M269.867,235.2c0-3.829-3.104-6.933-6.933-6.933h-13.867c-3.829,0-6.933,3.104-6.933,6.933
		s3.104,6.933,6.933,6.933h13.867C266.763,242.133,269.867,239.029,269.867,235.2z"/>
	<path style="fill:#F4F6F9;" d="M242.133,262.933c0,3.829,3.104,6.933,6.933,6.933h13.867c3.829,0,6.933-3.104,6.933-6.933
		c0-3.829-3.104-6.933-6.933-6.933h-13.867C245.237,256,242.133,259.104,242.133,262.933z"/>
	<path style="fill:#F4F6F9;" d="M242.133,290.667c0,3.829,3.104,6.933,6.933,6.933h13.867c3.829,0,6.933-3.104,6.933-6.933
		c0-3.829-3.104-6.933-6.933-6.933h-13.867C245.237,283.733,242.133,286.837,242.133,290.667z"/>
	<path style="fill:#F4F6F9;" d="M242.133,318.4c0,3.829,3.104,6.933,6.933,6.933h13.867c3.829,0,6.933-3.104,6.933-6.933
		c0-3.829-3.104-6.933-6.933-6.933h-13.867C245.237,311.467,242.133,314.571,242.133,318.4z"/>
	<path style="fill:#F4F6F9;" d="M242.133,346.133c0,3.829,3.104,6.933,6.933,6.933h13.867c3.829,0,6.933-3.104,6.933-6.933
		c0-3.829-3.104-6.933-6.933-6.933h-13.867C245.237,339.2,242.133,342.304,242.133,346.133z"/>
	<path style="fill:#F4F6F9;" d="M242.133,373.867c0,3.829,3.104,6.933,6.933,6.933h13.867c3.829,0,6.933-3.104,6.933-6.933
		c0-3.829-3.104-6.933-6.933-6.933h-13.867C245.237,366.933,242.133,370.037,242.133,373.867z"/>
</g>
</svg>