<?xml version="1.0" encoding="iso-8859-1"?>
<!-- Uploaded to: SVG Repo, www.svgrepo.com, Generator: SVG Repo Mixer Tools -->
<svg height="800px" width="800px" version="1.1" id="Layer_1" xmlns="http://www.w3.org/2000/svg" xmlns:xlink="http://www.w3.org/1999/xlink" 
	 viewBox="0 0 512.001 512.001" xml:space="preserve">
<path style="fill:#FA6E51;" d="M0.001,256.006c0,141.395,114.606,255.998,255.996,255.994
	c141.398,0.004,256.004-114.598,256.004-255.994C512.009,114.61,397.395,0,255.996,0C114.606,0,0.001,114.614,0.001,256.006z"/>
<path style="fill:#E8573F;" d="M507.518,303.58L368.974,165.036l-0.943-0.942l-72.461-72.461c-0.634-0.636-1.394-1.142-2.235-1.494
	c-0.837-0.35-1.743-0.539-2.669-0.539H138.134c-3.828,0-6.933,3.105-6.933,6.933v318.933c0,2.347,1.243,4.32,3.027,5.574
	c0.463,0.658,87.759,87.954,88.417,88.417c0.098,0.14,0.249,0.225,0.355,0.355c10.811,1.392,21.807,2.188,32.996,2.188
	C381.13,512.003,485.212,422.227,507.518,303.58z"/>
<g>
	<path style="fill:#F4F6F9;" d="M380.262,177.063c-0.352-0.842-0.859-1.6-1.494-2.235l-83.196-83.196
		c-0.635-0.635-1.393-1.142-2.235-1.494c-0.838-0.35-1.744-0.539-2.67-0.539H138.134c-3.829,0-6.933,3.104-6.933,6.933v318.933
		c0,3.829,3.104,6.933,6.933,6.933h235.733c3.829,0,6.933-3.104,6.933-6.933V179.733
		C380.801,178.807,380.612,177.902,380.262,177.063z M297.601,113.27l59.53,59.53h-59.53V113.27z M145.067,408.533V103.467h138.667
		v76.267c0,3.829,3.104,6.933,6.933,6.933h76.267v221.867H145.067z"/>
	<path style="fill:#F4F6F9;" d="M295.57,230.298c-2.708-2.708-7.095-2.708-9.804,0c-2.708,2.708-2.708,7.095,0,9.804l50.564,50.564
		l-50.564,50.564c-2.708,2.708-2.708,7.095,0,9.804c1.355,1.355,3.129,2.031,4.902,2.031c1.774,0,3.548-0.677,4.902-2.031
		l55.467-55.467c2.708-2.708,2.708-7.095,0-9.804L295.57,230.298z"/>
	<path style="fill:#F4F6F9;" d="M226.236,230.298c-2.708-2.708-7.095-2.708-9.804,0l-55.467,55.467
		c-2.708,2.708-2.708,7.095,0,9.804l55.467,55.467c1.355,1.355,3.129,2.031,4.902,2.031c1.774,0,3.548-0.677,4.902-2.031
		c2.708-2.708,2.708-7.095,0-9.804l-50.566-50.564l50.564-50.564C228.945,237.394,228.945,233.006,226.236,230.298z"/>
</g>
</svg>