<?xml version="1.0" encoding="iso-8859-1"?>
<!-- Uploaded to: SVG Repo, www.svgrepo.com, Generator: SVG Repo Mixer Tools -->
<svg height="800px" width="800px" version="1.1" id="Layer_1" xmlns="http://www.w3.org/2000/svg" xmlns:xlink="http://www.w3.org/1999/xlink" 
	 viewBox="0 0 512 512" xml:space="preserve">
<path style="fill:#9ED368;" d="M512,256.006C512,397.402,397.394,512.004,256.004,512C114.606,512.004,0,397.402,0,256.006
	C-0.007,114.61,114.606,0,256.004,0C397.394,0,512,114.614,512,256.006z"/>
<path style="fill:#8BC052;" d="M510.219,285.803c-0.011-0.007-0.016-0.019-0.016-0.019
	c-0.474-0.666-157.836-158.029-158.494-158.492c-1.253-1.785-3.226-3.025-5.574-3.025H210.586c-0.338-0.477-0.81-0.801-1.247-1.172
	c0,0-29.499-29.582-30.029-30.029l-0.158-0.25c-1.266-2.004-3.481-3.216-5.851-3.216H96.533c-3.833,0-6.933,3.102-6.933,6.933
	V325.34c0,0.569,0.067,1.131,0.21,1.679c1.613,6.464,5.005,11.974,9.533,16.3c0.497,0.547,167.83,167.825,168.399,168.373
	c0,0,0.007,0.007,0.011,0.011C393.712,506.015,495.893,409.326,510.219,285.803z"/>
<g>
	<path style="fill:#F4F6F9;" d="M418.938,348.225l-12.384-7.178c0.352-2.973,0.534-5.918,0.534-8.788
		c0-2.858-0.182-5.796-0.542-8.782l12.37-7.17c3.305-1.916,4.435-6.148,2.526-9.459l-22.628-39.291
		c-0.921-1.598-2.437-2.763-4.219-3.244c-1.801-0.481-3.69-0.217-5.281,0.711l-12.275,7.156c-4.537-3.365-9.621-6.304-15.024-8.693
		v-14.421c0-3.833-3.101-6.933-6.933-6.933h-45.269c-3.833,0-6.933,3.101-6.933,6.933v14.415c-4.591,2.011-9.987,4.848-15.228,8.714
		l-12.438-7.184c-1.598-0.914-3.501-1.157-5.261-0.69c-1.78,0.474-3.291,1.638-4.211,3.23l-22.655,39.298
		c-1.909,3.311-0.779,7.542,2.532,9.459l12.364,7.164c-0.379,3.02-0.562,5.932-0.562,8.788c0,2.884,0.182,5.796,0.548,8.796
		l-12.378,7.17c-3.311,1.916-4.442,6.148-2.532,9.459l22.628,39.291c1.903,3.317,6.148,4.455,9.466,2.553l12.492-7.19
		c5.247,3.867,10.644,6.703,15.234,8.714v14.415c0,3.833,3.101,6.933,6.933,6.933h45.269c3.833,0,6.933-3.101,6.933-6.933v-14.422
		c5.403-2.39,10.489-5.329,15.024-8.693l12.336,7.164c1.598,0.921,3.507,1.185,5.275,0.698c1.78-0.474,3.297-1.638,4.219-3.236
		l22.608-39.291C423.379,354.367,422.249,350.142,418.938,348.225z M390.317,384.022l-10.406-6.039
		c-2.539-1.462-5.756-1.185-7.997,0.738c-5.37,4.611-12.032,8.47-19.249,11.158c-2.715,1.015-4.516,3.602-4.516,6.5v12.154h-31.403
		V396.38c0-2.898-1.801-5.485-4.516-6.5c-7.354-2.735-14.259-6.703-19.445-11.158c-2.235-1.916-5.437-2.214-7.977-0.752
		l-10.562,6.08l-15.722-27.293l10.489-6.074c2.532-1.469,3.873-4.367,3.345-7.245c-0.718-3.948-1.07-7.603-1.07-11.179
		c0-3.521,0.352-7.17,1.084-11.165c0.528-2.878-0.813-5.776-3.345-7.245l-10.475-6.074l15.735-27.286l10.515,6.08
		c2.546,1.469,5.762,1.171,7.989-0.752c5.18-4.462,12.079-8.422,19.439-11.165c2.715-1.015,4.516-3.602,4.516-6.5V256h31.403v12.154
		c0,2.898,1.801,5.485,4.516,6.5c7.225,2.688,13.881,6.555,19.243,11.165c2.241,1.936,5.457,2.221,8.017,0.738l10.353-6.039
		l15.701,27.26l-10.475,6.074c-2.532,1.469-3.867,4.367-3.338,7.245c0.711,3.893,1.056,7.55,1.056,11.165
		c0,3.649-0.346,7.306-1.05,11.179c-0.528,2.878,0.813,5.776,3.345,7.245l10.489,6.074L390.317,384.022z"/>
	<path style="fill:#F4F6F9;" d="M332.251,295.082c-20.462,0-37.111,16.676-37.111,37.179c0,20.509,16.65,37.193,37.111,37.193
		s37.111-16.684,37.111-37.193C369.361,311.758,352.713,295.082,332.251,295.082z M332.251,355.585
		c-12.817,0-23.245-10.461-23.245-23.326c0-12.851,10.427-23.312,23.245-23.312c12.818,0,23.245,10.461,23.245,23.312
		C355.494,345.124,345.068,355.585,332.251,355.585z"/>
	<path style="fill:#F4F6F9;" d="M214.4,339.2h-61.561c2.669-3.555,4.745-7.613,5.885-12.18c0.142-0.548,0.21-1.11,0.21-1.679V172.8
		h208v55.467c0,3.833,3.101,6.933,6.933,6.933s6.933-3.101,6.933-6.933v-62.4c0-3.833-3.101-6.933-6.933-6.933h-20.801V131.2
		c0-3.833-3.101-6.933-6.933-6.933H199.125l-19.974-31.451c-1.266-2.004-3.481-3.216-5.85-3.216H96.533
		c-3.833,0-6.933,3.101-6.933,6.933V325.34c0,0.569,0.067,1.131,0.21,1.679c3.893,15.6,17.74,26.081,34.457,26.081
		c0.147,0,0.285-0.032,0.431-0.034H214.4c3.833,0,6.933-3.101,6.933-6.933S218.233,339.2,214.4,339.2z M103.467,324.433V103.467
		h66.022l19.974,31.451c1.266,2.004,3.481,3.216,5.85,3.216H339.2v20.8H152c-3.833,0-6.933,3.101-6.933,6.933v158.566
		c-3.058,10.656-12.626,14.594-20.266,14.767h-0.534c-0.045,0-0.082,0.025-0.128,0.026
		C116.437,339.184,106.578,335.276,103.467,324.433z"/>
</g>
</svg>