<?xml version="1.0" encoding="iso-8859-1"?>
<!-- Uploaded to: SVG Repo, www.svgrepo.com, Generator: SVG Repo Mixer Tools -->
<svg height="800px" width="800px" version="1.1" id="Layer_1" xmlns="http://www.w3.org/2000/svg" xmlns:xlink="http://www.w3.org/1999/xlink" 
	 viewBox="0 0 512.002 512.002" xml:space="preserve">
<path style="fill:#4A5A67;" d="M0.001,256.006c0,141.395,114.606,255.998,255.996,255.994
	c141.398,0.004,256.004-114.598,256.004-255.994C512.01,114.61,397.395,0,255.997,0C114.607,0,0.001,114.614,0.001,256.006z"/>
<path style="fill:#444A54;" d="M512.001,256.006c0-5.906-0.218-11.76-0.61-17.567c-27.081-27.09-90.222-90.256-90.349-90.346
	c-1.254-1.786-3.228-3.027-5.574-3.027H224.205l-0.678-0.678l-25.024-25.023c-1.3-1.3-3.063-2.031-4.901-2.031H96.534
	c-3.828,0-6.933,3.104-6.933,6.933v263.467c0,2.347,1.243,4.32,3.027,5.574c0.06,0.084,68.401,68.465,113.833,113.888
	c16.029,3.142,32.587,4.805,49.536,4.805C397.395,512.004,512.001,397.402,512.001,256.006z"/>
<path style="fill:#F4F6F9;" d="M415.468,145.067H224.205l-25.702-25.702c-1.3-1.3-3.063-2.031-4.902-2.031H96.533
	c-3.829,0-6.933,3.104-6.933,6.933v263.467c0,3.829,3.104,6.933,6.933,6.933h318.933c3.829,0,6.933-3.104,6.933-6.933V152
	C422.401,148.171,419.297,145.067,415.468,145.067z M408.534,380.8H103.468V131.2h87.263l25.702,25.702
	c1.3,1.3,3.063,2.031,4.902,2.031h187.199V380.8z"/>
</svg>