<?xml version="1.0" encoding="iso-8859-1"?>
<!-- Uploaded to: SVG Repo, www.svgrepo.com, Generator: SVG Repo Mixer Tools -->
<svg height="800px" width="800px" version="1.1" id="Layer_1" xmlns="http://www.w3.org/2000/svg" xmlns:xlink="http://www.w3.org/1999/xlink" 
	 viewBox="0 0 512 512" xml:space="preserve">
<path style="fill:#9ED368;" d="M512,256.006C512,397.402,397.394,512.004,256.004,512C114.606,512.004,0,397.402,0,256.006
	C-0.007,114.61,114.606,0,256.004,0C397.394,0,512,114.614,512,256.006z"/>
<path style="fill:#8BC052;" d="M511.768,266.529c-0.197-0.222-0.393-0.445-0.641-0.619c-0.462-0.657-89.426-89.623-90.085-90.085
	c-1.253-1.785-3.226-3.025-5.574-3.025h-4.365c-0.455-0.636-31.001-31.178-31.66-31.641c-1.254-1.786-3.226-3.026-5.575-3.026
	H232.16l-19.987-18.905c-1.294-1.219-2.993-1.895-4.767-1.895H96.533c-3.833,0-6.933,3.101-6.933,6.933v230.507
	c0,11.522,4.901,21.699,12.789,28.916c0.452,0.466,93.735,93.775,126.91,126.929c8.778,0.91,17.685,1.381,26.704,1.381
	C393.868,512.004,506.246,403.042,511.768,266.529z"/>
<g>
	<path style="fill:#F4F6F9;" d="M415.467,172.8H380.8v-27.733c0-3.833-3.101-6.933-6.933-6.933H232.16l-19.987-18.905
		c-1.293-1.219-2.993-1.895-4.767-1.895H96.533c-3.833,0-6.933,3.101-6.933,6.933v230.507c0,22.371,18.274,39.893,41.6,39.893
		h241.178c26.65,0,50.022-23.555,50.022-50.416V179.733C422.4,175.901,419.299,172.8,415.467,172.8z M158.933,179.733v175.04
		c0,15.323-11.402,26.027-27.733,26.027c-15.81,0-27.733-11.193-27.733-26.027V131.2H204.65l19.987,18.905
		c1.293,1.219,2.993,1.895,4.767,1.895h137.53v20.8H165.867C162.034,172.8,158.933,175.901,158.933,179.733z M408.533,344.251
		c0,19.127-17.232,36.549-36.156,36.549H163.49c5.898-6.838,9.31-15.817,9.31-26.027V186.667h235.733V344.251z"/>
	<path style="fill:#F4F6F9;" d="M233.677,345.741c1.428,0.264,2.864,0.393,4.3,0.393c5.044,0,10.054-1.604,14.443-4.678
		c5.782-4.043,9.737-10.129,10.853-16.704l2.117-12.465h0.002l0.779-4.597l0.277-1.632v-0.003l5.922-34.95l57.391-12.527
		l-4.348,25.635l-11.428-2.096c-6.697-1.246-13.42,0.244-18.992,4.15c-5.667,3.968-9.431,9.953-10.603,16.846
		c-2.377,14.029,6.927,27.503,20.759,30.035c1.422,0.265,2.858,0.393,4.286,0.393c5.051,0,10.068-1.604,14.463-4.686
		c5.782-4.049,9.73-10.135,10.847-16.704l1.056-6.229l0,0l15.323-90.364c0.379-2.268-0.386-4.583-2.051-6.175
		c-1.673-1.598-4.049-2.255-6.263-1.754l-72.001,15.715c-2.769,0.603-4.889,2.823-5.362,5.613l-11.501,67.854l-11.425-2.096
		c-6.676-1.232-13.42,0.244-18.992,4.144c-5.667,3.968-9.439,9.953-10.61,16.852C210.547,329.741,219.857,343.209,233.677,345.741z
		 M321.068,309.835c-0.487,2.891-2.403,5.756-5.119,7.658c-2.579,1.801-5.518,2.532-8.301,2.018
		c-6.405-1.178-10.705-7.489-9.581-14.083c0.542-3.21,2.275-5.979,4.882-7.807c1.93-1.355,4.178-2.059,6.473-2.059
		c0.684,0,1.367,0.067,2.051,0.19l11.621,2.132l-0.971,5.723h0.002L321.068,309.835z M335.733,223.364l-3.474,20.481l-57.393,12.527
		l3.471-20.482L335.733,223.364z M226.594,318.028c0.542-3.21,2.275-5.979,4.882-7.807c1.936-1.355,4.185-2.059,6.48-2.059
		c0.684,0,1.367,0.067,2.051,0.19l11.619,2.133l-2.025,11.943l-0.006,0.006c-0.487,2.891-2.403,5.756-5.125,7.658
		c-2.573,1.814-5.505,2.532-8.294,2.011C229.777,330.933,225.477,324.615,226.594,318.028z"/>
</g>
</svg>