<?xml version="1.0" encoding="iso-8859-1"?>
<!-- Uploaded to: SVG Repo, www.svgrepo.com, Generator: SVG Repo Mixer Tools -->
<svg height="800px" width="800px" version="1.1" id="Layer_1" xmlns="http://www.w3.org/2000/svg" xmlns:xlink="http://www.w3.org/1999/xlink" 
	 viewBox="0 0 512 512" xml:space="preserve">
<path style="fill:#4A5A67;" d="M512,256.006C512,397.402,397.394,512.004,256.004,512C114.606,512.004,0,397.402,0,256.006
	C-0.007,114.61,114.606,0,256.004,0C397.394,0,512,114.614,512,256.006z"/>
<path style="fill:#444A54;" d="M511.768,266.53c-0.197-0.221-0.393-0.445-0.641-0.619c-0.462-0.657-89.427-89.623-90.085-90.085
	c-1.254-1.786-3.227-3.026-5.574-3.026H411.1c-0.455-0.636-31.001-31.179-31.66-31.642c-1.254-1.785-3.228-3.025-5.574-3.025
	H232.163l-19.99-18.905c-1.286-1.219-2.993-1.895-4.764-1.895H96.533c-3.828,0-6.933,3.101-6.933,6.933v230.507
	c0,11.522,4.901,21.699,12.789,28.916c0.452,0.466,93.735,93.775,126.91,126.929c8.778,0.91,17.685,1.381,26.704,1.381
	C393.868,512.004,506.246,403.042,511.768,266.53z"/>
<g>
	<path style="fill:#F4F6F9;" d="M313.498,323.302c1.355,1.355,3.129,2.031,4.902,2.031s3.548-0.677,4.902-2.031l41.6-41.6
		c2.708-2.708,2.708-7.095,0-9.804l-41.6-41.6c-2.708-2.708-7.095-2.708-9.804,0c-2.708,2.708-2.708,7.095,0,9.804l36.698,36.698
		l-36.698,36.698C310.789,316.206,310.789,320.594,313.498,323.302z"/>
	<path style="fill:#F4F6F9;" d="M258.031,323.302c1.355,1.355,3.129,2.031,4.902,2.031s3.548-0.677,4.902-2.031
		c2.708-2.708,2.708-7.095,0-9.804L231.137,276.8l36.698-36.698c2.708-2.708,2.708-7.095,0-9.804c-2.708-2.708-7.095-2.708-9.804,0
		l-41.6,41.6c-2.708,2.708-2.708,7.095,0,9.804L258.031,323.302z"/>
	<path style="fill:#F4F6F9;" d="M415.467,172.8H380.8v-27.733c0-3.833-3.104-6.933-6.933-6.933H232.163l-19.99-18.905
		c-1.286-1.219-2.993-1.895-4.764-1.895H96.533c-3.829,0-6.933,3.101-6.933,6.933v230.507c0,22.371,18.274,39.893,41.6,39.893
		h241.173c26.65,0,50.027-23.555,50.027-50.416V179.733C422.4,175.901,419.296,172.8,415.467,172.8z M158.933,179.733v175.04
		c0,15.323-11.406,26.027-27.733,26.027c-15.81,0-27.733-11.193-27.733-26.027V131.2H204.65l19.99,18.905
		c1.286,1.219,2.993,1.895,4.764,1.895h137.53v20.8H165.867C162.037,172.8,158.933,175.901,158.933,179.733z M408.533,344.251
		c0,19.127-17.235,36.549-36.16,36.549h-208.88c5.89-6.838,9.307-15.817,9.307-26.027V186.667h235.733V344.251z"/>
</g>
</svg>