<?xml version="1.0" encoding="UTF-8"?>
<!-- Uploaded to: SVG Repo, www.svgrepo.com, Generator: SVG Repo Mixer Tools -->
<svg width="800px" height="800px" version="1.1" viewBox="0 0 512 512" xml:space="preserve" xmlns="http://www.w3.org/2000/svg">
<path d="m1e-3 256.01c0 141.4 114.61 256 256 255.99 141.4 4e-3 256-114.6 256-255.99 8e-3 -141.4-114.61-256.01-256-256.01-141.39 0-256 114.61-256 256.01z" fill="#cc4b4c"/>
<path d="m507.52 303.58-139.49-139.49-72.461-72.461c-0.634-0.636-1.394-1.142-2.235-1.494-0.837-0.35-1.743-0.539-2.669-0.539h-152.53c-3.828 0-6.933 3.105-6.933 6.933v318.93c0 2.347 1.243 4.32 3.027 5.574 0.463 0.658 87.759 87.954 88.417 88.417 0.098 0.14 0.249 0.225 0.355 0.355 10.811 1.392 21.807 2.188 32.996 2.188 125.13 3e-3 229.22-89.773 251.52-208.42z" fill="#b24142"/>

	<path d="m380.26 177.06c-0.352-0.842-0.859-1.6-1.494-2.235l-83.196-83.196c-0.635-0.635-1.393-1.142-2.235-1.494-0.838-0.35-1.744-0.539-2.67-0.539h-152.53c-3.829 0-6.933 3.104-6.933 6.933v318.93c0 3.829 3.104 6.933 6.933 6.933h235.73c3.829 0 6.933-3.104 6.933-6.933v-235.73c1e-3 -0.926-0.188-1.831-0.538-2.67zm-82.661-63.793 59.53 59.53h-59.53v-59.53zm-152.53 295.26v-305.07h138.67v76.267c0 3.829 3.104 6.933 6.933 6.933h76.267v221.87h-221.87z" fill="#F4F6F9"/>
	
<path d="m191.42 355.4c-2.3135 0-4.5339-0.75122-6.4286-2.1672-6.9205-5.1921-7.8512-10.969-7.4125-14.905 1.2099-10.823 14.592-22.151 39.788-33.692 9.9985-21.912 19.512-48.909 25.182-71.466-6.6347-14.439-13.083-33.173-8.3831-44.162 1.6487-3.8492 3.7029-6.8009 7.5388-8.0773 1.5157-0.50524 5.345-1.1434 6.7543-1.1434 3.3506 0 6.2956 4.3145 8.3831 6.9737 1.9612 2.4996 6.4086 7.7981-2.4797 45.219 8.9615 18.508 21.659 37.362 33.825 50.272 8.7155-1.5756 16.214-2.38 22.324-2.38 10.411 0 16.72 2.4265 19.292 7.4258 2.1274 4.135 1.2565 8.9681-2.5927 14.36-3.7029 5.1788-8.8086 7.9177-14.758 7.9177-8.0839 0-17.497-5.1056-27.995-15.191-18.86 3.9422-40.885 10.976-58.688 18.761-5.5577 11.794-10.883 21.293-15.842 28.261-6.8142 9.5398-12.691 13.994-18.508 13.994zm17.697-34.077c-14.207 7.9842-19.997 14.546-20.416 18.242-0.0664 0.61162-0.24597 2.2204 2.8653 4.6004 0.99055-0.31245 6.7743-2.9517 17.551-22.842zm90.658-29.53c5.4181 4.1683 6.741 6.2757 10.284 6.2757 1.5556 0 5.9898-0.0665 8.044-2.9318 0.99054-1.3894 1.3761-2.2802 1.529-2.7589-0.8177-0.43212-1.9013-1.3096-7.8114-1.3096-3.3572 7e-3 -7.5787 0.15291-12.046 0.72463zm-49.66-43.757c-4.7533 16.447-11.029 34.204-17.777 50.285 13.894-5.3915 28.998-10.098 43.185-13.429-8.9748-10.424-17.943-23.441-25.409-36.856zm-4.0353-56.255c-0.6515 0.21938-8.8418 11.68 0.6382 21.38 6.3089-14.06-0.35234-21.473-0.6382-21.38z" fill="#f4f6f9" stroke-width="6.648"/>
</svg>
