<?xml version="1.0" encoding="UTF-8"?>
<!-- Uploaded to: SVG Repo, www.svgrepo.com, Generator: SVG Repo Mixer Tools -->
<svg width="800px" height="800px" version="1.1" viewBox="0 0 512 512" xml:space="preserve" xmlns="http://www.w3.org/2000/svg">
<path d="m1e-3 256.01c0 141.4 114.61 256 256 255.99 141.4 4e-3 256-114.6 256-255.99 8e-3 -141.4-114.61-256.01-256-256.01-141.39 0-256 114.61-256 256.01z" fill="#bf5aef"/>
<path d="m507.52 303.58-139.49-139.49-72.461-72.461c-0.634-0.636-1.394-1.142-2.235-1.494-0.837-0.35-1.743-0.539-2.669-0.539h-152.53c-3.828 0-6.933 3.105-6.933 6.933v318.93c0 2.347 1.243 4.32 3.027 5.574 0.463 0.658 87.759 87.954 88.417 88.417 0.098 0.14 0.249 0.225 0.355 0.355 10.811 1.392 21.807 2.188 32.996 2.188 125.13 3e-3 229.22-89.773 251.52-208.42z" fill="#a43ed4"/>

	<path d="m380.26 177.06c-0.352-0.842-0.859-1.6-1.494-2.235l-83.196-83.196c-0.635-0.635-1.393-1.142-2.235-1.494-0.838-0.35-1.744-0.539-2.67-0.539h-152.53c-3.829 0-6.933 3.104-6.933 6.933v318.93c0 3.829 3.104 6.933 6.933 6.933h235.73c3.829 0 6.933-3.104 6.933-6.933v-235.73c1e-3 -0.926-0.188-1.831-0.538-2.67zm-82.661-63.793 59.53 59.53h-59.53v-59.53zm-152.53 295.26v-305.07h138.67v76.267c0 3.829 3.104 6.933 6.933 6.933h76.267v221.87h-221.87z" fill="#F4F6F9"/>
	<path d="m188.11 236.87h60.649v-10.395c0-2.8743 2.4701-5.1976 5.5135-5.1976s5.5135 2.3233 5.5135 5.1976v10.395h60.649v83.161h-34.371l11.529 18.114c1.5658 2.4637 0.72227 5.655-1.8912 7.1311-0.88216 0.50417-1.8636 0.74326-2.8284 0.74326-1.8746 0-3.6996-0.89919-4.7306-2.5208l-14.936-23.467h-37.867l-14.936 23.467c-1.031 1.6216-2.856 2.5208-4.7306 2.5208-0.96487 0-1.9463-0.23909-2.834-0.74326-2.6134-1.4761-3.457-4.6674-1.8911-7.1311l11.534-18.114h-34.371z" fill="#f4f6f9" stroke-width="5.3532"/>

</svg>
